<svg xmlns="http://www.w3.org/2000/svg" xmlns:xlink="http://www.w3.org/1999/xlink" viewBox="0 0 1024 1024"><defs><style>.a{clip-path:url(#c);}.b,.c{opacity:0;}.c,.d{fill:#fff;}.c{stroke:#fff;}.e{fill:url(#a);}.f{stroke:none;}.g{fill:none;}</style><linearGradient id="a" x1="0.279" x2="0.277" y2="0.574" gradientUnits="objectBoundingBox"><stop offset="0" stop-opacity="0.725"/><stop offset="1" stop-opacity="0.031"/></linearGradient><clipPath id="c"><rect width="1024" height="1024"/></clipPath></defs><g id="b" class="a"><rect class="d" width="1024" height="1024"/><rect class="b" width="962.408" height="962.408" transform="translate(30.796 30.796)"/><circle cx="481.204" cy="481.204" r="481.204" transform="translate(30.796 30.796)"/><g class="c" transform="translate(248 263)"><rect class="f" width="515.031" height="509.308"/><rect class="g" x="0.5" y="0.5" width="514.031" height="508.308"/></g><path class="d" d="M-3.558,6.258l47.58,47.58,343.3-6.489V0Z" transform="translate(358.091 667.059) rotate(-45)"/><path class="d" d="M-5.631-3,43.455,45.866,597,48V0Z" transform="translate(90 670.143) rotate(-45)"/><path class="d" d="M0,1.147V48l327.775,2.982L377.589,3.494Z" transform="translate(399.475 402.534) rotate(45)"/><path class="d" d="M0,.058V48H553.115L598.732,0Z" transform="translate(511.941 248) rotate(45)"/><path class="d" d="M0,0V44.934l360.6,3.177L405.412,3.3Z" transform="translate(511.941 383) rotate(45)"/><path class="d" d="M3.259.347l50.31,50.31L414.34,48V1.572Z" transform="translate(218.076 675.06) rotate(-45)"/><path class="e" d="M0,0H536L416.018,384.63,0,434.121Z" transform="translate(511.806 680) rotate(-90)"/></g></svg>