<svg xmlns="http://www.w3.org/2000/svg" viewBox="0 0 1024 1024"><defs><style>.d{fill:#fff}</style><linearGradient id="a" x1=".279" x2=".277" y2=".574" gradientUnits="objectBoundingBox"><stop offset="0" stop-opacity=".725"/><stop offset="1" stop-opacity=".031"/></linearGradient><clipPath id="c"><path d="M0 0h1024v1024H0z"/></clipPath></defs><g id="b" clip-path="url(#c)"><path class="d" d="M0 0h1024v1024H0z"/><circle cx="481.204" cy="481.204" r="481.204" transform="translate(30.796 30.796)"/><path class="d" d="M-3.558 6.258l47.58 47.58 343.3-6.489V0z" transform="rotate(-45 984.257 -98.725)"/><path class="d" d="M-5.631-3l49.086 48.866L597 48V0z" transform="rotate(-45 853.934 226.432)"/><path class="d" d="M0 1.147V48l327.775 2.982 49.814-47.488z" transform="rotate(45 -286.164 683.476)"/><path class="d" d="M0 .058V48h553.115l45.617-48z" transform="rotate(45 -43.392 741.967)"/><path class="d" d="M0 0v44.934l360.6 3.177L405.412 3.3z" transform="rotate(45 -206.351 809.467)"/><path class="d" d="M3.259.347l50.31 50.31L414.34 48V1.572z" transform="rotate(-45 923.908 74.289)"/><path d="M0 0h536L416.018 384.63 0 434.121z" transform="rotate(-90 595.903 84.097)" fill="url(#a)"/></g></svg>